<svg width="120" height="61" viewBox="0 0 120 61" fill="none" xmlns="http://www.w3.org/2000/svg">
    <path fill-rule="evenodd" clip-rule="evenodd" d="M59.8896 0C78.6483 0 93.8572 10.66 93.8572 23.8035C93.8572 36.947 78.6483 47.607 59.8896 47.607C41.1308 47.607 25.9219 36.947 25.9219 23.8035C25.9219 10.66 41.1308 0 59.8896 0Z" fill="#B58B58"/>
    <path fill-rule="evenodd" clip-rule="evenodd" d="M59.8872 0.970703C77.8777 0.970703 92.4697 11.1953 92.4697 23.8031C92.4697 36.4108 77.8777 46.6355 59.8872 46.6355C41.8968 46.6355 27.3047 36.4108 27.3047 23.8031C27.3047 11.1953 41.8968 0.970703 59.8872 0.970703Z" fill="white"/>
    <path fill-rule="evenodd" clip-rule="evenodd" d="M60.422 44.8266C49.7219 44.7541 38.6125 41.6007 31.7147 33.2458C32.8643 33.2458 33.6774 33.2458 34.8439 33.2458C34.8439 32.5537 34.8944 30.8291 34.8944 29.7073C34.3672 29.7073 33.812 29.7073 33.3073 29.7073C31.9951 29.7073 31.2043 29.7073 30.5258 29.7073C30.0042 29.7073 29.8023 29.7073 29.6004 29.7073C29.6004 29.3111 29.6061 29.1716 29.6004 28.7809C31.4399 28.7809 33.0549 28.7809 34.8944 28.7809C34.8944 27.8209 34.8944 27.5809 34.8944 24.3327C33.2961 24.3327 32.8363 24.3327 28.5405 24.3327C28.5237 23.9755 28.5349 23.6964 28.5349 23.3616C28.8321 23.3448 29.2808 23.3616 29.6004 23.3616C29.6004 21.7933 29.5668 20.1357 29.5836 18.5898C30.2622 18.5898 31.3053 17.6856 32.3372 17.4289C33.6662 17.4289 34.8888 17.4289 35.5001 17.4289C42.0222 17.4456 48.4882 17.4289 55.0271 17.4289C55.0271 16.9321 55.0271 16.5303 55.0271 16.1341C54.7131 16.1341 54.8028 16.1341 54.4551 16.1341C54.4551 15.7601 54.4551 15.5536 54.4551 15.2411C59.749 13.377 54.4551 15.241 59.7491 13.377C65.1159 15.241 59.7546 13.3547 65.1159 15.2411C65.1159 15.5704 65.1159 15.7992 65.1159 16.1341C64.8018 16.1341 65.1159 16.1341 64.5215 16.1341C64.5215 16.5303 64.5103 16.9824 64.5215 17.4289C71.1614 17.4289 77.4927 17.4289 84.3681 17.4289C84.985 17.4289 90.1388 17.4289 90.4529 17.4289C90.4529 18.3442 90.4528 18.0428 90.4865 18.919C90.4697 20.465 90.464 21.8156 90.464 23.3616C90.6491 23.3616 90.436 23.3616 91.2436 23.3616C91.2267 23.6964 91.2379 23.9978 91.2379 24.3327C89.1181 24.3159 87.0936 24.3327 84.9962 24.3327C84.9962 25.7894 84.9962 27.3242 84.9962 28.7809C86.7964 28.7976 88.647 28.7809 90.464 28.7809V29.7073C90.1051 29.7073 89.5443 29.7073 89.2303 29.7073C87.4694 29.7073 87.3797 29.7073 86.4936 29.7073C85.9496 29.6906 85.5178 29.7073 84.9962 29.7073C84.9794 30.8626 84.9962 32.0682 84.9962 33.2458C86.2805 33.1677 86.4543 33.2458 87.7386 33.2458C80.9529 40.9701 70.5108 44.8266 60.422 44.8266Z" fill="#231F20"/>
    <path fill-rule="evenodd" clip-rule="evenodd" d="M64.4141 33.2471C64.4141 32.1253 64.4645 30.7021 64.4645 29.7086C71.0259 29.7086 77.6209 29.6919 84.143 29.7086C84.143 30.9253 84.143 32.1476 84.143 33.3252C77.3349 33.247 71.5306 33.2471 64.4141 33.2471Z" fill="white"/>
    <path fill-rule="evenodd" clip-rule="evenodd" d="M55.5742 33.3254C55.5742 33.0463 55.5742 33.1022 55.5742 32.8398C58.2492 32.8398 61.0477 32.8398 63.8909 32.8398C63.8909 33.024 63.8909 33.0687 63.8909 33.3254C61.1206 33.3254 58.3446 33.3477 55.5742 33.3254Z" fill="white"/>
    <path fill-rule="evenodd" clip-rule="evenodd" d="M35.6875 33.3255C35.6875 32.1479 35.6875 30.8699 35.6875 29.709C41.9797 29.709 48.4794 29.709 55.0519 29.709C55.0519 30.8978 55.0519 32.0754 55.0519 33.3255C48.6252 33.3255 42.1423 33.3255 35.6875 33.3255Z" fill="white"/>
    <path fill-rule="evenodd" clip-rule="evenodd" d="M63.1872 32.075C63.1703 32.075 63.1872 25.9134 63.1872 24.334H63.8938C63.8938 26.9292 63.8938 29.4463 63.8938 32.075C63.7424 32.075 63.3161 32.075 63.1872 32.075Z" fill="white"/>
    <path fill-rule="evenodd" clip-rule="evenodd" d="M55.5767 24.334C55.7786 24.334 56.2048 24.334 56.2048 24.334C56.2048 26.9292 56.2048 29.7086 56.2048 32.075C56.0646 32.0694 55.9076 32.075 55.5767 32.075C55.5767 30.2723 55.5711 24.7693 55.5767 24.334Z" fill="white"/>
    <path fill-rule="evenodd" clip-rule="evenodd" d="M57.9241 32.075C57.9241 31.4332 57.9521 30.4454 57.9352 29.8872C57.924 29.7086 57.924 29.9375 57.9521 29.6249C57.9521 28.8436 57.9241 28.1571 57.9241 27.3757C57.4418 27.3757 56.9707 27.3757 56.8025 27.3757C56.8025 27.2976 56.8025 27.2808 56.8025 27.1357C56.8025 27.1357 57.3801 27.1357 57.9241 27.1357C58.0531 26.0139 58.883 25.4502 59.7298 25.4502C59.7298 25.1656 59.7298 25.2158 59.7298 24.9702C58.9559 24.9702 57.296 24.9702 56.7969 24.9702C56.7969 24.7526 56.7969 24.5572 56.7969 24.334C58.6812 24.334 58.1091 24.334 59.9486 24.334C59.9486 24.6744 59.7298 24.7749 59.7298 24.9702C58.8382 24.9702 60.6047 24.9702 59.7298 24.9702C59.7298 25.1488 59.7298 25.2716 59.7298 25.4502C59.7298 27.3031 59.9486 30.3504 59.9486 32.075C58.7092 32.075 59.1971 32.075 57.9241 32.075Z" fill="white"/>
    <path fill-rule="evenodd" clip-rule="evenodd" d="M61.5362 32.075C61.5362 31.4332 61.5081 30.4454 61.525 29.8872C61.5362 29.7086 61.5362 29.9375 61.5082 29.6249C61.5082 28.8436 61.5362 28.1571 61.5362 27.3757C62.0185 27.3757 62.4166 27.3757 62.5849 27.3757C62.5849 27.2976 62.5849 27.2808 62.5849 27.1357C62.5849 27.1357 62.0802 27.1357 61.5362 27.1357C61.4072 26.0139 60.6502 25.4502 59.8033 25.4502C59.8033 25.1656 59.8033 25.2158 59.8033 24.9702C60.5772 24.9702 62.0858 24.9702 62.5849 24.9702C62.5849 24.7526 62.5849 24.5572 62.5849 24.334C60.7006 24.334 61.4016 24.334 59.5622 24.334C59.5622 25.2158 59.6126 24.7414 59.5622 24.9702C59.5622 27.3366 59.5117 29.7086 59.5117 32.075C60.7567 32.075 60.2632 32.075 61.5362 32.075Z" fill="white"/>
    <path fill-rule="evenodd" clip-rule="evenodd" d="M58.3576 31.6997C58.352 31.3984 58.3689 30.8347 58.3576 27.4194C58.3576 27.2631 58.2399 25.9238 59.7371 25.9238C59.782 28.4518 59.7371 30.3604 59.7371 31.6997C58.7502 31.6997 59.4735 31.6997 58.3576 31.6997Z" fill="#231F20"/>
    <path fill-rule="evenodd" clip-rule="evenodd" d="M61.0498 31.6997C61.0554 31.3984 61.0386 30.8347 61.0498 27.4194C61.0498 27.2631 61.2124 25.9238 59.7153 25.9238C59.6704 28.4518 59.7153 30.3604 59.7153 31.6997C60.7022 31.6997 59.9339 31.6997 61.0498 31.6997Z" fill="#231F20"/>
    <path fill-rule="evenodd" clip-rule="evenodd" d="M81.59 28.7818C75.982 28.7818 70.2113 28.7818 64.4688 28.7818C64.4688 27.8107 64.4688 25.2489 64.4688 24.3336C65.91 24.3336 81.6405 24.3169 84.1473 24.3336C84.1473 25.807 84.1473 27.314 84.1473 28.7818C83.3061 28.7818 82.448 28.7818 81.59 28.7818Z" fill="white"/>
    <path fill-rule="evenodd" clip-rule="evenodd" d="M35.6875 28.7822C35.6875 27.4762 35.6875 25.2605 35.6875 24.334C46.6736 24.334 40.7347 24.334 55.0519 24.334C55.0519 26.053 55.0519 27.2083 55.0519 28.7822C48.5915 28.7822 42.1479 28.8045 35.6875 28.7822Z" fill="white"/>
    <path fill-rule="evenodd" clip-rule="evenodd" d="M56.8047 26.8404C56.8047 26.1707 56.8047 26.0592 56.8047 25.2891C57.7187 25.2891 58.2009 25.2891 59.0421 25.2891C58.2066 25.4565 57.7187 26.1707 57.6906 26.8404C57.5224 26.8404 57.0738 26.8404 56.8047 26.8404Z" fill="white"/>
    <path fill-rule="evenodd" clip-rule="evenodd" d="M62.5851 26.9406C62.5851 26.271 62.5851 26.0533 62.5851 25.2832C61.6711 25.2832 61.273 25.2832 60.4375 25.2832C61.2786 25.4506 61.6711 26.271 61.6711 26.9406C61.8393 26.9406 62.3104 26.9406 62.5851 26.9406Z" fill="white"/>
    <path fill-rule="evenodd" clip-rule="evenodd" d="M60.9766 23.7316C60.9822 23.062 60.9766 23.3298 60.9766 22.8164C61.1055 22.8164 61.1448 22.8164 61.442 22.8164C61.442 23.101 61.442 23.447 61.442 23.7316C61.0494 23.7316 61.3803 23.7316 60.9766 23.7316Z" fill="white"/>
    <path fill-rule="evenodd" clip-rule="evenodd" d="M59.4883 23.7314C59.4939 23.0561 59.4883 23.3295 59.4883 22.8105C59.6173 22.8105 59.6565 22.8105 59.9537 22.8105C59.9537 23.0952 59.9537 23.4467 59.9537 23.7314C59.5612 23.7314 59.892 23.7314 59.4883 23.7314Z" fill="white"/>
    <path fill-rule="evenodd" clip-rule="evenodd" d="M57.8906 23.7302C57.8962 23.0661 57.8906 23.334 57.8906 22.8262C58.0196 22.8262 58.0588 22.8262 58.356 22.8262C58.356 23.1052 58.356 23.4512 58.356 23.7302C57.9635 23.7302 58.2944 23.7302 57.8906 23.7302Z" fill="white"/>
    <path fill-rule="evenodd" clip-rule="evenodd" d="M62.1542 23.7315C62.1542 23.3631 62.1542 23.1622 62.1542 22.8497C59.8773 22.8497 59.1258 22.8497 57.2472 22.8497C57.2472 23.3632 57.2472 23.3631 57.2472 23.7315C57.1182 23.7315 56.9163 23.7315 56.8042 23.7315C56.8042 23.3631 56.8042 23.3632 56.8042 22.8497H56.5742C56.5742 22.7939 56.5742 22.6543 56.5742 22.6543C58.5707 22.6543 60.8027 22.6543 62.8328 22.6543C62.8328 22.671 62.8328 22.8497 62.8328 22.8497C62.7767 22.8664 62.6309 22.8329 62.5916 22.8497C62.5916 23.1287 62.5916 23.4301 62.5916 23.7315C62.1542 23.7259 62.3953 23.7315 62.1542 23.7315Z" fill="white"/>
    <path fill-rule="evenodd" clip-rule="evenodd" d="M85.8867 23.3612C85.8867 21.7931 85.8867 20.1357 85.8923 18.5898C87.0979 18.5898 88.3091 18.5898 89.5147 18.5898C89.4979 20.1357 89.5091 21.7931 89.5091 23.3612C88.2979 23.3612 87.0923 23.3612 85.8867 23.3612Z" fill="white"/>
    <path fill-rule="evenodd" clip-rule="evenodd" d="M79.4158 23.3617C74.492 23.3617 69.4504 23.3617 64.4648 23.3617C64.4648 21.8157 64.4648 20.1191 64.4648 18.5898C75.8098 18.5898 81.5805 18.5898 84.1434 18.5898C84.1434 18.8633 84.1434 20.4818 84.1434 23.3617C82.5843 23.3617 80.9804 23.3617 79.4158 23.3617Z" fill="white"/>
    <path fill-rule="evenodd" clip-rule="evenodd" d="M84.7695 23.3612C84.7695 21.7931 84.7695 20.1357 84.7695 18.5898C84.9882 18.5898 84.9882 18.5898 85.1733 18.5898C85.1957 23.3613 85.1789 18.5898 85.1957 23.3612C85.0275 23.3612 84.9378 23.3612 84.7695 23.3612Z" fill="white"/>
    <path fill-rule="evenodd" clip-rule="evenodd" d="M63.5985 23.3619C63.5425 23.3619 63.2172 23.3619 63.1836 23.3619C63.1836 21.537 63.1836 20.0191 63.1836 17.4297C63.1836 17.4297 63.5986 17.4297 63.8901 17.4297C63.8901 19.2936 63.8901 21.1575 63.8901 23.3619C63.7612 23.3619 63.7275 23.3619 63.5985 23.3619Z" fill="white"/>
    <path fill-rule="evenodd" clip-rule="evenodd" d="M35.6875 23.3626C35.6875 21.4538 35.6875 20.2874 35.6875 18.5908C43.5499 18.5908 42.7816 18.5908 50.5879 18.5908C51.631 18.6075 53.992 18.574 55.0519 18.5908C55.0351 20.1367 55.0519 21.7943 55.0519 23.3626C48.5971 23.3626 42.1423 23.3626 35.6875 23.3626Z" fill="white"/>
    <path fill-rule="evenodd" clip-rule="evenodd" d="M55.5742 23.3619C55.5742 21.8997 55.5742 18.5905 55.5742 17.4297C55.7761 17.4297 55.8882 17.4297 56.2023 17.4297C56.2023 19.2936 56.2022 21.4924 56.1854 23.3563C56.0172 23.3619 55.7424 23.3619 55.5742 23.3619Z" fill="white"/>
    <path fill-rule="evenodd" clip-rule="evenodd" d="M30.3908 23.2681C30.374 21.6999 30.3516 20.1373 30.3516 18.5859C31.8095 18.5915 33.1946 18.5915 33.9964 18.5915C33.9796 20.1597 33.9796 21.6832 33.9796 23.2681C32.7684 23.2681 31.5796 23.2681 30.3908 23.2681Z" fill="white"/>
    <path fill-rule="evenodd" clip-rule="evenodd" d="M34.6867 23.3621C34.6755 21.0294 34.6811 19.9078 34.6811 18.6019C34.8493 18.5852 34.9222 18.5907 35.0904 18.5907C35.0904 20.7337 35.0904 21.4033 35.0904 23.3621C34.9446 23.3621 34.8325 23.3621 34.6867 23.3621Z" fill="white"/>
    <path fill-rule="evenodd" clip-rule="evenodd" d="M62.5858 22.3748C62.5858 22.3748 62.2606 22.3748 62.1484 22.3748C62.1484 21.1192 62.1484 19.6962 62.1484 18.4629C62.3167 18.4629 62.4008 18.4629 62.5858 18.4629C62.5858 21.895 62.5858 19.9584 62.5858 22.3748Z" fill="white"/>
    <path fill-rule="evenodd" clip-rule="evenodd" d="M58.8831 22.3748C58.8831 22.3748 58.4401 22.3748 58.3672 22.3748C58.3672 21.4819 58.3672 20.3379 58.3672 19.4395C58.4962 19.4395 58.7541 19.4395 58.8831 19.4395C58.8831 20.3323 58.8943 21.4429 58.8943 22.3581C58.8999 22.3637 58.8831 21.4763 58.8831 22.3748Z" fill="white"/>
    <path fill-rule="evenodd" clip-rule="evenodd" d="M60.4922 22.3748C60.4922 21.5991 60.4922 20.1705 60.4922 19.4395C60.7445 19.4395 60.7165 19.4395 60.98 19.4395C60.98 20.8402 60.98 21.2754 60.98 22.3748C60.8455 22.3748 60.6548 22.3748 60.4922 22.3748Z" fill="white"/>
    <path fill-rule="evenodd" clip-rule="evenodd" d="M61.2324 22.3746C61.2324 21.2976 61.238 20.4829 61.2324 19.4393C61.2716 19.4002 61.3838 19.456 61.4398 19.4393C61.4398 19.2161 61.4398 18.7975 61.4398 18.5966C60.3071 18.5966 59.0343 18.5966 57.9184 18.5966C57.9184 18.9091 57.9184 19.2161 57.9184 19.4393C57.9577 19.4393 58.109 19.4393 58.109 19.4337C58.109 20.3266 58.109 21.4817 58.109 22.3802C57.924 22.3802 57.8904 22.3802 57.7109 22.3802C57.7109 20.7563 57.7109 18.9537 57.7109 17.4414C58.7147 17.4414 60.453 17.4414 61.6362 17.4414C61.6362 17.9883 61.6362 22.3244 61.6362 22.3802C61.4735 22.3746 61.4118 22.3746 61.2324 22.3746Z" fill="white"/>
    <path fill-rule="evenodd" clip-rule="evenodd" d="M56.8047 22.3748C56.8047 20.2151 56.8047 19.858 56.8047 18.4629C57.2925 18.4629 56.7542 18.4629 57.2476 18.4629C57.2476 19.6962 57.2476 20.9853 57.2476 22.3748C57.057 22.3748 56.8047 22.3748 56.8047 22.3748Z" fill="white"/>
    <path fill-rule="evenodd" clip-rule="evenodd" d="M58.3672 19.1937C58.3672 19.11 58.3672 18.9593 58.3672 18.8867C59.3148 18.8867 60.2681 18.8867 61.2326 18.8867C61.2326 18.9258 61.2326 19.0597 61.2326 19.1825C58.3672 19.1992 61.2326 19.1825 58.3672 19.1937Z" fill="white"/>
    <path fill-rule="evenodd" clip-rule="evenodd" d="M62.1539 18.1666C62.1539 18.0215 62.1539 17.9378 62.1539 17.7927C61.9745 17.7927 62.1035 17.7927 61.9297 17.7927C61.9297 17.536 61.9297 17.6476 61.9297 17.4355C62.2886 17.4355 62.4792 17.4355 62.8325 17.4355C62.8325 17.536 62.8325 17.7927 62.8325 17.7927C62.7259 17.7927 62.7539 17.7927 62.5913 17.7927C62.5913 17.9378 62.5913 17.9825 62.5913 18.1666C62.496 18.1666 62.2268 18.1666 62.1539 18.1666Z" fill="white"/>
    <path fill-rule="evenodd" clip-rule="evenodd" d="M56.8041 18.1842C56.8041 17.8103 56.8041 18.1842 56.8041 17.8103C56.8041 17.8103 56.6079 17.8103 56.5742 17.8103C56.5742 17.4364 56.5742 17.8103 56.5742 17.4531C56.8041 17.4531 57.0677 17.4531 57.477 17.4531C57.477 17.5368 57.477 17.7098 57.477 17.8103C57.3817 17.8103 57.2919 17.8103 57.2471 17.8103C57.2471 17.9107 57.2471 17.7824 57.2471 18.1842C57.1518 18.1842 56.877 18.1842 56.8041 18.1842Z" fill="white"/>
    <path fill-rule="evenodd" clip-rule="evenodd" d="M55.5742 16.9331C55.5742 16.5312 55.5742 16.9331 55.5742 16.5312C58.367 16.5312 60.2682 16.5312 63.8909 16.5312C63.8909 16.9331 63.8909 16.5312 63.8909 16.9331C61.0645 16.9331 58.4007 16.9331 55.5742 16.9331Z" fill="white"/>
    <path fill-rule="evenodd" clip-rule="evenodd" d="M82.2973 16.1468C80.9122 16.1468 68.8157 16.1356 66.4099 16.1356C66.4099 15.7617 66.4099 15.3598 66.4099 14.9245C59.7308 12.5971 66.4099 14.9245 59.7308 12.5916C53.2255 14.9245 59.7308 12.586 53.2255 14.9245C53.2311 15.5495 53.2255 15.9123 53.2255 16.1356C47.8923 16.1356 42.5591 16.1468 37.1586 16.1468C31.7188 14.238 37.1585 16.1467 31.7188 14.238C42.6992 0.229387 67.0436 -0.289654 81.4954 8.5899C83.8563 10.1749 85.9201 11.7377 87.7371 14.238C82.2973 16.1467 87.7371 14.238 82.2973 16.1468Z" fill="#087681"/>
    <path fill-rule="evenodd" clip-rule="evenodd" d="M55.5742 15.7C59.7297 14.2266 55.5742 15.7056 59.7298 14.2266C63.8909 15.7 59.7298 14.2266 63.8909 15.7C62.1749 15.7 57.3407 15.7 55.5742 15.7Z" fill="white"/>
    <path d="M62.5838 27.6543H61.7539V28.4077H62.5838V27.6543Z" fill="white"/>
    <path d="M57.6268 27.6543H56.7969V28.4077H57.6268V27.6543Z" fill="white"/>
    <path d="M62.5838 30.2832H61.7539V31.0366H62.5838V30.2832Z" fill="white"/>
    <path d="M57.6268 30.2832H56.7969V31.0366H57.6268V30.2832Z" fill="white"/>
    <path d="M62.5838 28.6934H61.7539V29.4467H62.5838V28.6934Z" fill="white"/>
    <path d="M57.6268 28.6934H56.7969V29.4467H57.6268V28.6934Z" fill="white"/>
    <path d="M62.5838 31.3203H61.7539V32.0737H62.5838V31.3203Z" fill="white"/>
    <path d="M57.6268 31.3203H56.7969V32.0737H57.6268V31.3203Z" fill="white"/>
    <path d="M58.1168 29.7188H56.8047V29.9587H58.1168V29.7188Z" fill="white"/>
    <path d="M62.5895 29.7188H61.2773V29.9587H62.5895V29.7188Z" fill="white"/>
    <path d="M38.2126 19.7637H36.7266V22.6879H38.2126V19.7637Z" fill="#231F20"/>
    <path d="M32.8805 19.7637H31.3945V22.6879H32.8805V19.7637Z" fill="#231F20"/>
    <path d="M83.0094 19.7637H81.5234V22.6879H83.0094V19.7637Z" fill="#231F20"/>
    <path d="M88.3922 19.7637H86.9062V22.6879H88.3922V19.7637Z" fill="#231F20"/>
    <path d="M38.2126 25.1152H36.7266V28.0395H38.2126V25.1152Z" fill="#231F20"/>
    <path d="M33.2389 25.1152H31.0352V28.0395H33.2389V25.1152Z" fill="#231F20"/>
    <path d="M88.6217 25.1152H86.418V28.0395H88.6217V25.1152Z" fill="#231F20"/>
    <path d="M33.2389 29.4902H31.0352V31.9178H33.2389V29.4902Z" fill="#231F20"/>
    <path d="M88.6217 29.4902H86.418V31.9178H88.6217V29.4902Z" fill="#231F20"/>
    <path d="M83.0094 25.1152H81.5234V28.0395H83.0094V25.1152Z" fill="#231F20"/>
    <path d="M38.2126 30.1836H36.7266V31.7963H38.2126V30.1836Z" fill="#231F20"/>
    <path d="M83.0094 30.1836H81.5234V31.7963H83.0094V30.1836Z" fill="#231F20"/>
    <path d="M38.4166 19.3379H36.5156V19.7564H38.4166V19.3379Z" fill="#231F20"/>
    <path d="M33.0884 19.3379H31.1875V19.7564H33.0884V19.3379Z" fill="#231F20"/>
    <path d="M83.2174 19.3379H81.3164V19.7564H83.2174V19.3379Z" fill="#231F20"/>
    <path d="M88.6002 19.3379H86.6992V19.7564H88.6002V19.3379Z" fill="#231F20"/>
    <path d="M41.318 19.7637H39.832V22.6879H41.318V19.7637Z" fill="#231F20"/>
    <path d="M79.8961 19.7637H78.4102V22.6879H79.8961V19.7637Z" fill="#231F20"/>
    <path d="M41.318 25.1152H39.832V28.0395H41.318V25.1152Z" fill="#231F20"/>
    <path d="M79.8961 25.1152H78.4102V28.0395H79.8961V25.1152Z" fill="#231F20"/>
    <path d="M41.318 30.1836H39.832V31.7963H41.318V30.1836Z" fill="#231F20"/>
    <path d="M79.8961 30.1836H78.4102V31.7963H79.8961V30.1836Z" fill="#231F20"/>
    <path d="M41.5259 19.3379H39.625V19.7564H41.5259V19.3379Z" fill="#231F20"/>
    <path d="M80.1041 19.3379H78.2031V19.7564H80.1041V19.3379Z" fill="#231F20"/>
    <path d="M44.4547 19.7637H42.9688V22.6879H44.4547V19.7637Z" fill="#231F20"/>
    <path d="M76.7672 19.7637H75.2812V22.6879H76.7672V19.7637Z" fill="#231F20"/>
    <path d="M44.4547 25.1152H42.9688V28.0395H44.4547V25.1152Z" fill="#231F20"/>
    <path d="M76.7672 25.1152H75.2812V28.0395H76.7672V25.1152Z" fill="#231F20"/>
    <path d="M44.4547 30.1836H42.9688V31.7963H44.4547V30.1836Z" fill="#231F20"/>
    <path d="M76.7672 30.1836H75.2812V31.7963H76.7672V30.1836Z" fill="#231F20"/>
    <path d="M44.6627 19.3379H42.7617V19.7564H44.6627V19.3379Z" fill="#231F20"/>
    <path d="M76.9752 19.3379H75.0742V19.7564H76.9752V19.3379Z" fill="#231F20"/>
    <path d="M47.7243 19.7637H46.2383V22.6879H47.7243V19.7637Z" fill="#231F20"/>
    <path d="M73.4976 19.7637H72.0117V22.6879H73.4976V19.7637Z" fill="#231F20"/>
    <path d="M47.7243 25.1152H46.2383V28.0395H47.7243V25.1152Z" fill="#231F20"/>
    <path d="M73.4976 25.1152H72.0117V28.0395H73.4976V25.1152Z" fill="#231F20"/>
    <path d="M47.7243 30.1836H46.2383V31.7963H47.7243V30.1836Z" fill="#231F20"/>
    <path d="M73.4976 30.1836H72.0117V31.7963H73.4976V30.1836Z" fill="#231F20"/>
    <path d="M47.9244 19.3379H46.0234V19.7564H47.9244V19.3379Z" fill="#231F20"/>
    <path d="M73.7056 19.3379H71.8047V19.7564H73.7056V19.3379Z" fill="#231F20"/>
    <path d="M50.9938 19.7637H49.5078V22.6879H50.9938V19.7637Z" fill="#231F20"/>
    <path d="M70.2282 19.7637H68.7422V22.6879H70.2282V19.7637Z" fill="#231F20"/>
    <path d="M50.9938 25.1152H49.5078V28.0395H50.9938V25.1152Z" fill="#231F20"/>
    <path d="M70.2282 25.1152H68.7422V28.0395H70.2282V25.1152Z" fill="#231F20"/>
    <path d="M50.9938 30.1836H49.5078V31.7963H50.9938V30.1836Z" fill="#231F20"/>
    <path d="M70.2282 30.1836H68.7422V31.7963H70.2282V30.1836Z" fill="#231F20"/>
    <path d="M51.1939 19.3379H49.293V19.7564H51.1939V19.3379Z" fill="#231F20"/>
    <path d="M70.4361 19.3379H68.5352V19.7564H70.4361V19.3379Z" fill="#231F20"/>
    <path d="M54.1383 19.7637H52.6523V22.6879H54.1383V19.7637Z" fill="#231F20"/>
    <path d="M67.0758 19.7637H65.5898V22.6879H67.0758V19.7637Z" fill="#231F20"/>
    <path d="M54.1383 25.1152H52.6523V28.0395H54.1383V25.1152Z" fill="#231F20"/>
    <path d="M67.0758 25.1152H65.5898V28.0395H67.0758V25.1152Z" fill="#231F20"/>
    <path d="M54.1383 30.1836H52.6523V32.8455H54.1383V30.1836Z" fill="#231F20"/>
    <path d="M67.0758 30.1836H65.5898V32.8455H67.0758V30.1836Z" fill="#231F20"/>
    <path d="M54.3463 19.3379H52.4453V19.7564H54.3463V19.3379Z" fill="#231F20"/>
    <path d="M67.2838 19.3379H65.3828V19.7564H67.2838V19.3379Z" fill="#231F20"/>
    <path fill-rule="evenodd" clip-rule="evenodd" d="M32.2226 16.1348L35.088 17.4406V18.5902H29.3516V17.4406L32.2226 16.1348Z" fill="#231F20"/>
    <path fill-rule="evenodd" clip-rule="evenodd" d="M32.2247 17.0781L33.2397 17.5023L34.2602 17.932H30.1836L32.2247 17.0781Z" fill="white"/>
    <path fill-rule="evenodd" clip-rule="evenodd" d="M87.6467 16.1348L90.5177 17.4406V18.5902H84.7812V17.4406L87.6467 16.1348Z" fill="#231F20"/>
    <path fill-rule="evenodd" clip-rule="evenodd" d="M87.6488 17.0781L89.6843 17.932H85.6133L87.6488 17.0781Z" fill="white"/>
    <path fill-rule="evenodd" clip-rule="evenodd" d="M60.4222 44.8269C49.7221 44.7544 38.6127 41.601 31.7148 33.2461C32.8645 33.2461 33.6776 33.2461 34.8441 33.2461H87.7387C80.953 40.9704 70.511 44.8269 60.4222 44.8269Z" fill="#087681"/>
    <path d="M117.174 57.8488L115.94 55.0638L114.622 57.8488H117.174ZM119.994 60.4105H117.196V60.2096C117.701 60.2096 117.953 60.0645 117.953 59.7799C117.953 59.7352 117.942 59.6739 117.919 59.6069C117.897 59.5343 117.886 59.4953 117.886 59.4841L117.319 58.2228H114.471L113.999 59.2831C113.893 59.5231 113.837 59.6962 113.837 59.8022C113.837 59.8748 113.87 59.9529 113.932 60.0311C113.994 60.1092 114.067 60.1594 114.14 60.1706C114.274 60.1985 114.437 60.2096 114.622 60.2096V60.4105H112.44V60.2096C112.726 60.2096 112.962 60.0813 113.147 59.8301C113.242 59.7018 113.332 59.5455 113.416 59.3613L116.153 53.6741H116.383L119.041 59.4618C119.164 59.7241 119.277 59.9082 119.394 60.0143C119.54 60.1482 119.742 60.2152 120 60.2152V60.4105H119.994ZM109.956 58.5688L109.603 60.4105H103.434L108.01 54.2155H105.918C105.335 54.2155 104.92 54.2825 104.668 54.4164C104.32 54.6006 104.113 54.9745 104.056 55.527H103.843L103.972 53.7857H109.608L105.015 60.0031H107.438C108.117 60.0031 108.61 59.925 108.919 59.7632C109.322 59.5567 109.597 59.1604 109.743 58.5744H109.956V58.5688ZM100.669 58.792L100.153 60.4161H94.3154V60.2152C94.6631 60.2152 94.9154 60.1538 95.0725 60.0366C95.2295 59.9194 95.3023 59.685 95.3023 59.3446V54.8797C95.3023 54.5337 95.2295 54.2992 95.0837 54.1765C94.9379 54.0593 94.6799 53.9978 94.3209 53.9978V53.7857H100.013L100.092 55.2592H99.8897C99.828 54.8462 99.6935 54.5615 99.4803 54.4052C99.2672 54.249 98.9476 54.1765 98.5214 54.1765H96.6203C96.4464 54.182 96.3567 54.2769 96.3567 54.4611V56.42C96.3567 56.5484 96.3679 56.6321 96.3959 56.6768C96.424 56.7214 96.4969 56.7438 96.6203 56.7438H97.9998C98.4204 56.7438 98.7233 56.6935 98.9027 56.5931C99.1495 56.4535 99.2729 56.1912 99.2729 55.8005H99.486V58.1055H99.2729C99.2729 57.5474 99.0485 57.2293 98.5998 57.1568L97.9942 57.1288H96.6651C96.4576 57.1288 96.351 57.1903 96.351 57.3186V59.4227C96.351 59.6236 96.3791 59.7687 96.4296 59.8524C96.4968 59.9585 96.6259 60.0143 96.8109 60.0143H98.3812C98.9308 60.0143 99.3569 59.9194 99.6542 59.7296C99.9514 59.5399 100.221 59.1995 100.462 58.7139L100.669 58.792ZM91.5114 60.4105H88.4943V60.2096C88.8476 60.2096 89.1055 60.1482 89.2514 60.0255C89.4028 59.9027 89.4757 59.6683 89.4757 59.3222V55.0471C89.4757 54.7122 89.4084 54.4834 89.2682 54.355C89.128 54.2267 88.8924 54.1653 88.556 54.1653H87.0194C86.7222 54.1988 86.5258 54.2769 86.4305 54.3941C86.3352 54.5113 86.2847 54.7289 86.2847 55.0359V59.3167C86.2847 59.6571 86.3632 59.8971 86.5259 60.0311C86.6661 60.1483 86.9128 60.2096 87.2717 60.2096V60.4105H84.2658V60.2096C84.6079 60.2096 84.8547 60.1482 85.0117 60.0199C85.1687 59.8915 85.2416 59.6627 85.2416 59.3278V54.8741C85.2416 54.5337 85.1687 54.2992 85.0229 54.1765C84.8771 54.0537 84.6247 53.9922 84.2658 53.9922V53.7802H91.5114V53.9922C91.3656 53.9922 91.2141 54.009 91.0683 54.0425C90.715 54.076 90.5355 54.3551 90.5355 54.8741V59.3278C90.5355 59.6906 90.6084 59.925 90.7486 60.0366C90.8888 60.1483 91.1469 60.2096 91.5114 60.2096V60.4105ZM78.9102 57.8488L77.6764 55.0638L76.3586 57.8488H78.9102ZM81.7366 60.4105H78.9382V60.2096C79.443 60.2096 79.6953 60.0645 79.6953 59.7799C79.6953 59.7352 79.6841 59.6739 79.6617 59.6069C79.6393 59.5343 79.628 59.4953 79.628 59.4841L79.0616 58.2228H76.2128L75.7416 59.2831C75.6351 59.5231 75.579 59.6962 75.579 59.8022C75.579 59.8748 75.6126 59.9529 75.6743 60.0311C75.736 60.1092 75.8089 60.1594 75.8818 60.1706C76.0164 60.1985 76.1791 60.2096 76.3642 60.2096V60.4105H74.1827V60.2096C74.4687 60.2096 74.7042 60.0813 74.8893 59.8301C74.9846 59.7018 75.0743 59.5455 75.1584 59.3613L77.8951 53.6741H78.125L80.7833 59.4618C80.9067 59.7241 81.0188 59.9082 81.1366 60.0143C81.2824 60.1482 81.4843 60.2152 81.7422 60.2152V60.4105H81.7366ZM70.4196 55.5662C70.4196 55.0973 70.2626 54.7401 69.943 54.4834C69.6458 54.249 69.2532 54.1318 68.7709 54.1318C68.4737 54.1318 68.2998 54.221 68.2437 54.3941V56.727C68.2437 56.9335 68.3223 57.0396 68.4849 57.0396C69.0401 57.0396 69.4831 56.9335 69.814 56.727C70.2178 56.4759 70.4196 56.0908 70.4196 55.5662ZM71.5245 55.5159C71.5245 56.1577 71.2609 56.6377 70.7281 56.9558C70.3019 57.2182 69.7411 57.3521 69.0457 57.3688H68.4232C68.3055 57.3688 68.2437 57.4358 68.2437 57.5698V59.1269C68.2437 59.5567 68.2998 59.8357 68.412 59.9697C68.541 60.1315 68.8102 60.2096 69.2196 60.2096V60.4105H66.2417V60.2096C66.7184 60.2096 66.9932 60.1147 67.0717 59.9306C67.1502 59.7464 67.1894 59.4785 67.1894 59.1269V54.8238C67.1894 54.489 67.111 54.2657 66.9595 54.1541C66.8306 54.0481 66.595 53.9922 66.2473 53.9922V53.7802H69.1635C69.8364 53.7802 70.3692 53.8974 70.7729 54.1429C71.2721 54.4387 71.5245 54.8964 71.5245 55.5159ZM63.505 55.4992H63.2807C63.2807 55.1141 63.1853 54.8071 63.0003 54.5783C62.7928 54.3271 62.5012 54.1931 62.1255 54.1876H61.301C61.1328 54.1876 61.0375 54.2155 61.0151 54.2657C60.9926 54.3215 60.9814 54.3885 60.9814 54.4778V59.1659C60.9814 59.5957 61.0431 59.8748 61.1664 60.0087C61.2898 60.1482 61.5647 60.2152 61.9853 60.2152V60.4161H58.9065V60.2152C59.142 60.2152 59.299 60.2096 59.3775 60.1929C59.6187 60.1538 59.7757 60.0311 59.8486 59.8246C59.8934 59.7073 59.9215 59.4953 59.9215 59.2051V54.4666C59.9215 54.3383 59.9103 54.2602 59.8879 54.2378C59.8654 54.2099 59.7925 54.1931 59.6691 54.1876H59.3158C58.7663 54.1764 58.3737 54.2434 58.1382 54.3941C57.8634 54.5727 57.6839 54.9411 57.6054 55.4992H57.4147L57.4652 53.7857H63.4994V55.4992H63.505ZM52.2385 60.4105H49.2214V60.2096C49.5691 60.2096 49.8215 60.1482 49.9729 60.0199C50.1243 59.8915 50.1972 59.6627 50.1972 59.3278V57.5028C50.1972 57.3074 50.1131 57.2126 49.9448 57.2126H47.1072C46.8997 57.2126 46.7931 57.3074 46.7931 57.5028V59.3167C46.7931 59.6571 46.8717 59.8915 47.0231 60.0199C47.1745 60.1482 47.4268 60.2096 47.7801 60.2096V60.4105H44.7743V60.2096C45.1164 60.2096 45.3631 60.1482 45.5202 60.0199C45.6772 59.8915 45.75 59.6627 45.75 59.3278V54.8741C45.75 54.5281 45.6771 54.2937 45.5313 54.1709C45.3855 54.0537 45.1332 53.9922 44.7743 53.9922V53.7802H47.7801V53.9922L47.3259 54.0425C46.9726 54.0816 46.7931 54.3606 46.7931 54.8741V56.5261C46.7931 56.727 46.8997 56.8275 47.1128 56.8275H49.9393C50.1075 56.8275 50.1916 56.7214 50.1916 56.5093V54.8797C50.1916 54.5337 50.1131 54.3048 49.9504 54.1876C49.8439 54.115 49.5972 54.0481 49.2158 53.9978V53.7857H52.2329V53.9978C51.7282 53.9978 51.431 54.1206 51.3301 54.3662C51.2852 54.4722 51.2571 54.6453 51.2571 54.8741V59.3222C51.2571 59.6738 51.3356 59.9139 51.487 60.0422C51.6216 60.1538 51.8684 60.2152 52.2329 60.2152V60.4105H52.2385ZM42.3348 60.4105H39.2279V60.2096C39.3401 60.204 39.5084 60.1873 39.7327 60.1594C39.9009 60.1315 39.9851 60.0533 39.9851 59.9306C39.9851 59.8524 39.9402 59.7576 39.856 59.6627C39.7831 59.5957 39.7383 59.5511 39.7158 59.5231L37.6353 57.3912L37.4615 57.2628L37.2708 57.2517V59.3724C37.2708 59.6794 37.3493 59.8971 37.5119 60.0255C37.6465 60.1259 37.8764 60.1873 38.2073 60.2152V60.4161H35.2519V60.2152C35.5996 60.2152 35.8519 60.1538 36.0033 60.0311C36.1548 59.9083 36.2277 59.6795 36.2277 59.3446V54.9467C36.2277 54.5727 36.1604 54.3215 36.0258 54.1932C35.8912 54.0648 35.6332 53.9978 35.2519 53.9978V53.7857H38.2409V53.9978C37.596 53.9978 37.2764 54.3048 37.2764 54.9187V56.9726C37.3829 56.9726 37.5007 56.9112 37.6185 56.794L39.2672 55.1532C39.3626 55.0583 39.4467 54.9689 39.5308 54.8852C39.5644 54.8461 39.5981 54.8071 39.6318 54.7736C39.7664 54.6062 39.8448 54.4555 39.8729 54.316C39.8729 54.1876 39.7832 54.0983 39.6037 54.048C39.4523 54.0201 39.3177 54.009 39.1999 54.009V53.7969H41.7965V54.009C41.2356 54.009 40.6804 54.2881 40.142 54.8462L38.3307 56.6768L41.2524 59.6125C41.4375 59.7911 41.6001 59.9306 41.7459 60.0311C41.9478 60.165 42.1497 60.232 42.3516 60.232V60.4105H42.3348ZM32.2685 60.4105H29.2289V60.2096C29.6159 60.2096 29.8738 60.1594 29.9916 60.0589C30.1374 59.9473 30.2103 59.7018 30.2103 59.3278V54.8741C30.2103 54.5337 30.1318 54.2992 29.9691 54.1653C29.8289 54.0537 29.5822 53.9922 29.2233 53.9922V53.7802H32.2628V53.9922C31.7918 53.9922 31.5057 54.0983 31.3992 54.3048C31.3207 54.4555 31.2758 54.6509 31.2758 54.8741V59.3222C31.2758 59.6683 31.3544 59.9027 31.5002 60.0255C31.6516 60.1482 31.9039 60.2096 32.2572 60.2096V60.4105H32.2685ZM26.3801 53.9922C25.7968 53.9922 25.4827 54.1486 25.4323 54.4555V60.4105H25.2192L20.7215 55.0638V59.3111C20.7215 59.685 20.7833 59.9306 20.9123 60.0422C21.0412 60.1538 21.2992 60.2152 21.6862 60.2152V60.4161H19.3028V60.2152C19.8524 60.2152 20.1664 60.0645 20.2505 59.752V54.6676C20.0262 54.2658 19.7065 54.0425 19.3028 53.9978V53.7857H21.0019L24.9556 58.5018V54.8964C24.9556 54.5224 24.8883 54.2825 24.7537 54.1765C24.6472 54.0983 24.3892 54.0369 23.991 53.9978V53.7857H26.3744V53.9922H26.3801ZM14.3285 58.0999H14.1154C14.0873 57.8209 14.0368 57.6423 13.9639 57.5698C13.863 57.4693 13.6499 57.4191 13.3302 57.4191H12.1637C11.8609 57.4191 11.6703 57.4916 11.5805 57.6423C11.5076 57.7651 11.4683 57.9158 11.4683 58.1055H11.2552V56.0238H11.4683C11.4964 56.3196 11.5805 56.5093 11.7207 56.5931C11.8273 56.66 12.0404 56.6936 12.3657 56.6936H13.218C13.4984 56.6936 13.706 56.6488 13.8294 56.5651C13.992 56.4647 14.0817 56.2861 14.1098 56.0238H14.3229V58.0999H14.3285ZM15.0912 57.1065C15.0912 56.2805 14.9173 55.5829 14.5752 55.0136C14.1658 54.3383 13.5714 54.0034 12.7863 54.0034C12.0068 54.0034 11.4123 54.3438 10.9973 55.0247C10.6552 55.5828 10.4869 56.2805 10.4869 57.1065C10.4869 57.9158 10.6608 58.6023 11.0085 59.1659C11.4291 59.8524 12.0235 60.1984 12.7918 60.1984C13.5657 60.1984 14.1546 59.858 14.5752 59.1771C14.9173 58.6078 15.0912 57.9158 15.0912 57.1065ZM16.252 57.1065C16.252 58.1167 15.9267 58.9427 15.2818 59.5901C14.6369 60.2375 13.8069 60.5612 12.7918 60.5612C11.788 60.5612 10.958 60.2375 10.3131 59.5845C9.6682 58.9315 9.34295 58.1056 9.34295 57.1065C9.34295 56.0852 9.66258 55.2536 10.2963 54.6061C10.9356 53.9643 11.7656 53.6406 12.7918 53.6406C13.8237 53.6406 14.6593 53.9588 15.2986 54.6006C15.9323 55.248 16.252 56.0796 16.252 57.1065ZM6.34261 58.792L5.83233 60.4161H0V60.2152C0.347696 60.2152 0.600042 60.1538 0.757066 60.0366C0.914091 59.9194 0.987014 59.685 0.987014 59.3446V54.8797C0.987014 54.5337 0.914096 54.2992 0.76268 54.1765C0.616872 54.0593 0.358912 53.9978 0 53.9978V53.7857H5.69213L5.77066 55.2592H5.56878C5.50709 54.8462 5.37244 54.5615 5.15933 54.4052C4.94623 54.249 4.6266 54.1765 4.20039 54.1765H2.29927C2.12542 54.182 2.03571 54.2769 2.03571 54.4611V56.42C2.03571 56.5484 2.04689 56.6321 2.07493 56.6768C2.10297 56.7214 2.17589 56.7438 2.29365 56.7438H3.67327C4.09387 56.7438 4.39669 56.6935 4.57615 56.5931C4.8229 56.4535 4.94623 56.1912 4.94623 55.8005H5.15933V58.1055H4.94623C4.94623 57.5474 4.72193 57.2293 4.27329 57.1568L3.66765 57.1288H2.33856C2.13107 57.1288 2.02448 57.1903 2.02448 57.3186V59.4227C2.02448 59.6236 2.05253 59.7687 2.103 59.8524C2.1703 59.9585 2.29931 60.0143 2.48437 60.0143H4.05457C4.60416 60.0143 5.03038 59.9194 5.3276 59.7296C5.62483 59.5399 5.89398 59.1995 6.13512 58.7139L6.34261 58.792Z" fill="#231F20"/>
</svg>
    